<?xml version="1.0" standalone="no"?>
<!DOCTYPE svg PUBLIC "-//W3C//DTD SVG 20010904//EN"
 "http://www.w3.org/TR/2001/REC-SVG-20010904/DTD/svg10.dtd">
<svg version="1.0" xmlns="http://www.w3.org/2000/svg"
 width="40" height="40" viewBox="0 0 512.000000 512.000000"
 preserveAspectRatio="xMidYMid meet">

<g transform="translate(0.000000,512.000000) scale(0.100000,-0.100000)" stroke="none">
<path d="M245 5111 c-90 -22 -172 -90 -215 -176 l-25 -50 0 -2325 0 -2325 23
-45 c35 -72 75 -114 144 -151 l63 -34 2325 0 2325 0 63 34 c70 38 100 69 140
145 l27 51 0 2325 0 2325 -34 63 c-37 69 -79 109 -151 144 l-45 23 -2305 2
c-1268 0 -2318 -2 -2335 -6z m4600 -217 c70 -33 65 163 65 -2334 0 -2497 5
-2301 -65 -2334 -30 -14 -255 -16 -2285 -16 -2497 0 -2301 -5 -2334 65 -14 30
-16 255 -16 2285 0 2026 2 2255 16 2285 33 70 -164 65 2332 65 2032 0 2257 -2
2287 -16z"/>
<path d="M990 4039 c-44 -18 -90 -59 -113 -102 -22 -41 -22 -48 -25 -491 -3
-527 -2 -537 67 -606 38 -38 59 -50 100 -59 34 -7 201 -11 476 -11 l425 0 0
-159 0 -160 -197 -3 c-196 -3 -198 -3 -236 -30 -22 -14 -51 -43 -65 -65 l-27
-38 -3 -750 c-3 -839 -6 -802 68 -869 21 -19 56 -39 77 -45 49 -14 396 -14
446 0 49 13 105 63 128 114 16 34 19 68 19 223 l0 182 430 0 430 0 0 -182 c0
-155 3 -189 19 -223 23 -51 79 -101 128 -114 50 -14 397 -14 446 0 21 6 56 26
77 45 74 67 71 30 68 869 l-3 750 -27 40 c-15 22 -44 51 -65 65 -35 24 -42 25
-235 28 l-198 3 0 160 0 159 425 0 c275 0 442 4 476 11 41 9 62 21 100 59 69
69 70 79 67 606 l-3 449 -25 45 c-14 24 -45 58 -68 75 l-44 30 -501 0 -502 0
-38 -27 c-22 -14 -51 -43 -65 -65 l-27 -38 -3 -462 -3 -463 -429 0 -429 0 -3
463 -3 462 -27 40 c-15 22 -44 51 -65 65 l-37 25 -490 2 c-309 1 -500 -2 -516
-8z m930 -624 l0 -425 -425 0 -425 0 0 425 0 425 425 0 425 0 0 -425z m2130 0
l0 -425 -425 0 -425 0 0 425 0 425 425 0 425 0 0 -425z m-1060 -827 c0 -207 8
-238 73 -295 52 -46 91 -53 285 -53 l172 0 0 -695 0 -695 -160 0 -160 0 0 183
c0 176 -1 185 -25 234 -30 59 -79 97 -145 112 -60 14 -880 14 -940 0 -66 -15
-115 -53 -145 -112 -24 -49 -25 -58 -25 -234 l0 -183 -160 0 -160 0 0 695 0
695 173 0 c193 0 232 7 284 53 65 57 73 88 73 295 l0 182 430 0 430 0 0 -182z"/>
</g>
</svg>
